solid 
 facet normal -1.000000e+00  0.000000e+00  0.000000e+00
   outer loop
     vertex  0.000000e+00  3.050000e+00  2.500000e-01
     vertex  0.000000e+00  4.050000e+00  0.000000e+00
     vertex  0.000000e+00  3.050000e+00  0.000000e+00
   endloop
 endfacet
 facet normal -1.000000e+00  0.000000e+00  0.000000e+00
   outer loop
     vertex  0.000000e+00  3.050000e+00  2.500000e-01
     vertex  0.000000e+00  4.050000e+00  5.000000e-01
     vertex  0.000000e+00  4.050000e+00  0.000000e+00
   endloop
 endfacet
 facet normal -1.000000e+00  0.000000e+00  0.000000e+00
   outer loop
     vertex  0.000000e+00  3.050000e+00  4.000000e-01
     vertex  0.000000e+00  4.050000e+00  5.000000e-01
     vertex  0.000000e+00  3.050000e+00  2.500000e-01
   endloop
 endfacet
 facet normal -1.000000e+00  0.000000e+00  0.000000e+00
   outer loop
     vertex  0.000000e+00  3.000000e+00  4.000000e-01
     vertex  0.000000e+00  3.050000e+00  2.500000e-01
     vertex  0.000000e+00  3.000000e+00  2.500000e-01
   endloop
 endfacet
 facet normal -1.000000e+00  0.000000e+00  0.000000e+00
   outer loop
     vertex  0.000000e+00  3.000000e+00  4.000000e-01
     vertex  0.000000e+00  3.050000e+00  4.000000e-01
     vertex  0.000000e+00  3.050000e+00  2.500000e-01
   endloop
 endfacet
 facet normal -1.000000e+00  0.000000e+00  0.000000e+00
   outer loop
     vertex  0.000000e+00  3.050000e+00  5.000000e-01
     vertex  0.000000e+00  4.050000e+00  5.000000e-01
     vertex  0.000000e+00  3.050000e+00  4.000000e-01
   endloop
 endfacet
 facet normal -1.000000e+00  0.000000e+00  0.000000e+00
   outer loop
     vertex  0.000000e+00  0.000000e+00  0.000000e+00
     vertex  0.000000e+00  3.000000e+00  2.500000e-01
     vertex  0.000000e+00  3.000000e+00  0.000000e+00
   endloop
 endfacet
 facet normal -1.000000e+00  0.000000e+00  0.000000e+00
   outer loop
     vertex  0.000000e+00  0.000000e+00  5.000000e-01
     vertex  0.000000e+00  3.000000e+00  5.000000e-01
     vertex  0.000000e+00  3.000000e+00  4.000000e-01
   endloop
 endfacet
 facet normal -1.000000e+00  0.000000e+00  0.000000e+00
   outer loop
     vertex  0.000000e+00  0.000000e+00  5.000000e-01
     vertex  0.000000e+00  3.000000e+00  2.500000e-01
     vertex  0.000000e+00  0.000000e+00  0.000000e+00
   endloop
 endfacet
 facet normal -1.000000e+00  0.000000e+00  0.000000e+00
   outer loop
     vertex  0.000000e+00  0.000000e+00  5.000000e-01
     vertex  0.000000e+00  3.000000e+00  4.000000e-01
     vertex  0.000000e+00  3.000000e+00  2.500000e-01
   endloop
 endfacet
 facet normal  0.000000e+00  0.000000e+00 -1.000000e+00
   outer loop
     vertex  0.000000e+00  4.050000e+00  0.000000e+00
     vertex  1.200000e+00  3.050000e+00  0.000000e+00
     vertex  0.000000e+00  3.050000e+00  0.000000e+00
   endloop
 endfacet
 facet normal  0.000000e+00  0.000000e+00 -1.000000e+00
   outer loop
     vertex  0.000000e+00  4.050000e+00  0.000000e+00
     vertex  1.200000e+00  4.050000e+00  0.000000e+00
     vertex  1.200000e+00  3.050000e+00  0.000000e+00
   endloop
 endfacet
 facet normal  0.000000e+00  0.000000e+00 -1.000000e+00
   outer loop
     vertex  0.000000e+00  3.000000e+00  0.000000e+00
     vertex  1.200000e+00  0.000000e+00  0.000000e+00
     vertex  0.000000e+00  0.000000e+00  0.000000e+00
   endloop
 endfacet
 facet normal  0.000000e+00  0.000000e+00 -1.000000e+00
   outer loop
     vertex  0.000000e+00  3.000000e+00  0.000000e+00
     vertex  1.200000e+00  3.000000e+00  0.000000e+00
     vertex  1.200000e+00  0.000000e+00  0.000000e+00
   endloop
 endfacet
 facet normal -0.000000e+00  1.000000e+00  0.000000e+00
   outer loop
     vertex  6.284032e-01  4.050000e+00  3.588508e-01
     vertex  6.374255e-01  4.050000e+00  3.668439e-01
     vertex  1.200000e+00  4.050000e+00  0.000000e+00
   endloop
 endfacet
 facet normal -0.000000e+00  1.000000e+00  0.000000e+00
   outer loop
     vertex  6.442728e-01  4.050000e+00  3.767638e-01
     vertex  1.200000e+00  4.050000e+00  5.000000e-01
     vertex  1.200000e+00  4.050000e+00  0.000000e+00
   endloop
 endfacet
 facet normal  0.000000e+00  1.000000e+00  0.000000e+00
   outer loop
     vertex  6.442728e-01  4.050000e+00  3.767638e-01
     vertex  1.200000e+00  4.050000e+00  0.000000e+00
     vertex  6.374255e-01  4.050000e+00  3.668439e-01
   endloop
 endfacet
 facet normal -0.000000e+00  1.000000e+00  0.000000e+00
   outer loop
     vertex  6.177302e-01  4.050000e+00  3.532492e-01
     vertex  6.284032e-01  4.050000e+00  3.588508e-01
     vertex  1.200000e+00  4.050000e+00  0.000000e+00
   endloop
 endfacet
 facet normal -0.000000e+00  1.000000e+00  0.000000e+00
   outer loop
     vertex  6.485471e-01  4.050000e+00  3.880342e-01
     vertex  1.200000e+00  4.050000e+00  5.000000e-01
     vertex  6.442728e-01  4.050000e+00  3.767638e-01
   endloop
 endfacet
 facet normal -0.000000e+00  1.000000e+00  0.000000e+00
   outer loop
     vertex  6.060268e-01  4.050000e+00  3.503646e-01
     vertex  6.177302e-01  4.050000e+00  3.532492e-01
     vertex  1.200000e+00  4.050000e+00  0.000000e+00
   endloop
 endfacet
 facet normal -0.000000e+00  1.000000e+00  0.000000e+00
   outer loop
     vertex  6.500000e-01  4.050000e+00  4.000000e-01
     vertex  1.200000e+00  4.050000e+00  5.000000e-01
     vertex  6.485471e-01  4.050000e+00  3.880342e-01
   endloop
 endfacet
 facet normal -0.000000e+00  1.000000e+00  0.000000e+00
   outer loop
     vertex  6.485471e-01  4.050000e+00  4.119658e-01
     vertex  1.200000e+00  4.050000e+00  5.000000e-01
     vertex  6.500000e-01  4.050000e+00  4.000000e-01
   endloop
 endfacet
 facet normal -0.000000e+00  1.000000e+00  0.000000e+00
   outer loop
     vertex  6.442728e-01  4.050000e+00  4.232362e-01
     vertex  1.200000e+00  4.050000e+00  5.000000e-01
     vertex  6.485471e-01  4.050000e+00  4.119658e-01
   endloop
 endfacet
 facet normal -0.000000e+00  1.000000e+00  0.000000e+00
   outer loop
     vertex  6.374255e-01  4.050000e+00  4.331561e-01
     vertex  1.200000e+00  4.050000e+00  5.000000e-01
     vertex  6.442728e-01  4.050000e+00  4.232362e-01
   endloop
 endfacet
 facet normal -0.000000e+00  1.000000e+00  0.000000e+00
   outer loop
     vertex  6.284032e-01  4.050000e+00  4.411492e-01
     vertex  1.200000e+00  4.050000e+00  5.000000e-01
     vertex  6.374255e-01  4.050000e+00  4.331561e-01
   endloop
 endfacet
 facet normal -0.000000e+00  1.000000e+00  0.000000e+00
   outer loop
     vertex  6.177302e-01  4.050000e+00  4.467508e-01
     vertex  1.200000e+00  4.050000e+00  5.000000e-01
     vertex  6.284032e-01  4.050000e+00  4.411492e-01
   endloop
 endfacet
 facet normal -0.000000e+00  1.000000e+00  0.000000e+00
   outer loop
     vertex  6.060268e-01  4.050000e+00  4.496354e-01
     vertex  1.200000e+00  4.050000e+00  5.000000e-01
     vertex  6.177302e-01  4.050000e+00  4.467508e-01
   endloop
 endfacet
 facet normal  0.000000e+00  1.000000e+00  0.000000e+00
   outer loop
     vertex  0.000000e+00  4.050000e+00  0.000000e+00
     vertex  5.557272e-01  4.050000e+00  3.767638e-01
     vertex  5.625745e-01  4.050000e+00  3.668439e-01
   endloop
 endfacet
 facet normal  0.000000e+00  1.000000e+00  0.000000e+00
   outer loop
     vertex  0.000000e+00  4.050000e+00  0.000000e+00
     vertex  5.625745e-01  4.050000e+00  3.668439e-01
     vertex  5.715968e-01  4.050000e+00  3.588508e-01
   endloop
 endfacet
 facet normal  0.000000e+00  1.000000e+00  0.000000e+00
   outer loop
     vertex  0.000000e+00  4.050000e+00  0.000000e+00
     vertex  5.715968e-01  4.050000e+00  3.588508e-01
     vertex  5.822698e-01  4.050000e+00  3.532492e-01
   endloop
 endfacet
 facet normal  0.000000e+00  1.000000e+00  0.000000e+00
   outer loop
     vertex  0.000000e+00  4.050000e+00  0.000000e+00
     vertex  5.822698e-01  4.050000e+00  3.532492e-01
     vertex  5.939732e-01  4.050000e+00  3.503646e-01
   endloop
 endfacet
 facet normal  0.000000e+00  1.000000e+00  0.000000e+00
   outer loop
     vertex  0.000000e+00  4.050000e+00  0.000000e+00
     vertex  5.939732e-01  4.050000e+00  3.503646e-01
     vertex  6.060268e-01  4.050000e+00  3.503646e-01
   endloop
 endfacet
 facet normal  0.000000e+00  1.000000e+00  0.000000e+00
   outer loop
     vertex  0.000000e+00  4.050000e+00  0.000000e+00
     vertex  6.060268e-01  4.050000e+00  3.503646e-01
     vertex  1.200000e+00  4.050000e+00  0.000000e+00
   endloop
 endfacet
 facet normal  0.000000e+00  1.000000e+00  0.000000e+00
   outer loop
     vertex  0.000000e+00  4.050000e+00  5.000000e-01
     vertex  5.939732e-01  4.050000e+00  4.496354e-01
     vertex  5.822698e-01  4.050000e+00  4.467508e-01
   endloop
 endfacet
 facet normal  0.000000e+00  1.000000e+00  0.000000e+00
   outer loop
     vertex  0.000000e+00  4.050000e+00  5.000000e-01
     vertex  5.822698e-01  4.050000e+00  4.467508e-01
     vertex  5.715968e-01  4.050000e+00  4.411492e-01
   endloop
 endfacet
 facet normal  0.000000e+00  1.000000e+00  0.000000e+00
   outer loop
     vertex  0.000000e+00  4.050000e+00  5.000000e-01
     vertex  5.715968e-01  4.050000e+00  4.411492e-01
     vertex  5.625745e-01  4.050000e+00  4.331561e-01
   endloop
 endfacet
 facet normal  0.000000e+00  1.000000e+00  0.000000e+00
   outer loop
     vertex  0.000000e+00  4.050000e+00  5.000000e-01
     vertex  5.625745e-01  4.050000e+00  4.331561e-01
     vertex  5.557272e-01  4.050000e+00  4.232362e-01
   endloop
 endfacet
 facet normal  0.000000e+00  1.000000e+00  0.000000e+00
   outer loop
     vertex  0.000000e+00  4.050000e+00  5.000000e-01
     vertex  5.557272e-01  4.050000e+00  4.232362e-01
     vertex  5.514529e-01  4.050000e+00  4.119658e-01
   endloop
 endfacet
 facet normal  0.000000e+00  1.000000e+00  0.000000e+00
   outer loop
     vertex  0.000000e+00  4.050000e+00  5.000000e-01
     vertex  5.514529e-01  4.050000e+00  4.119658e-01
     vertex  5.500000e-01  4.050000e+00  4.000000e-01
   endloop
 endfacet
 facet normal  0.000000e+00  1.000000e+00  0.000000e+00
   outer loop
     vertex  0.000000e+00  4.050000e+00  5.000000e-01
     vertex  5.500000e-01  4.050000e+00  4.000000e-01
     vertex  5.514529e-01  4.050000e+00  3.880342e-01
   endloop
 endfacet
 facet normal  0.000000e+00  1.000000e+00  0.000000e+00
   outer loop
     vertex  0.000000e+00  4.050000e+00  5.000000e-01
     vertex  5.514529e-01  4.050000e+00  3.880342e-01
     vertex  5.557272e-01  4.050000e+00  3.767638e-01
   endloop
 endfacet
 facet normal  0.000000e+00  1.000000e+00  0.000000e+00
   outer loop
     vertex  0.000000e+00  4.050000e+00  5.000000e-01
     vertex  5.557272e-01  4.050000e+00  3.767638e-01
     vertex  0.000000e+00  4.050000e+00  0.000000e+00
   endloop
 endfacet
 facet normal  0.000000e+00  1.000000e+00  0.000000e+00
   outer loop
     vertex  1.200000e+00  4.050000e+00  5.000000e-01
     vertex  5.939732e-01  4.050000e+00  4.496354e-01
     vertex  0.000000e+00  4.050000e+00  5.000000e-01
   endloop
 endfacet
 facet normal  0.000000e+00  1.000000e+00  0.000000e+00
   outer loop
     vertex  1.200000e+00  4.050000e+00  5.000000e-01
     vertex  6.060268e-01  4.050000e+00  4.496354e-01
     vertex  5.939732e-01  4.050000e+00  4.496354e-01
   endloop
 endfacet
 facet normal  0.000000e+00  0.000000e+00 -1.000000e+00
   outer loop
     vertex  0.000000e+00  3.050000e+00  2.500000e-01
     vertex  1.200000e+00  3.000000e+00  2.500000e-01
     vertex  0.000000e+00  3.000000e+00  2.500000e-01
   endloop
 endfacet
 facet normal  0.000000e+00  0.000000e+00 -1.000000e+00
   outer loop
     vertex  0.000000e+00  3.050000e+00  2.500000e-01
     vertex  1.200000e+00  3.050000e+00  2.500000e-01
     vertex  1.200000e+00  3.000000e+00  2.500000e-01
   endloop
 endfacet
 facet normal -6.090321e-17 -1.000000e+00  4.227679e-17
   outer loop
     vertex  6.284032e-01  3.232405e-17  4.411492e-01
     vertex  6.374255e-01  3.143665e-17  4.331561e-01
     vertex  1.200000e+00  0.000000e+00  5.000000e-01
   endloop
 endfacet
 facet normal -6.383596e-17 -1.000000e+00  6.695952e-17
   outer loop
     vertex  6.442728e-01  3.033531e-17  4.232362e-01
     vertex  1.200000e+00  0.000000e+00  5.000000e-01
     vertex  6.374255e-01  3.143665e-17  4.331561e-01
   endloop
 endfacet
 facet normal -5.683229e-17 -1.000000e+00  2.737420e-18
   outer loop
     vertex  6.177302e-01  3.294596e-17  4.467508e-01
     vertex  6.284032e-01  3.232405e-17  4.411492e-01
     vertex  1.200000e+00  0.000000e+00  5.000000e-01
   endloop
 endfacet
 facet normal -6.644179e-17 -1.000000e+00  8.582426e-17
   outer loop
     vertex  6.485471e-01  2.908404e-17  4.119658e-01
     vertex  1.200000e+00  0.000000e+00  5.000000e-01
     vertex  6.442728e-01  3.033531e-17  4.232362e-01
   endloop
 endfacet
 facet normal -4.867507e-17 -1.000000e+00 -8.646022e-17
   outer loop
     vertex  6.060268e-01  3.326622e-17  4.496354e-01
     vertex  6.177302e-01  3.294596e-17  4.467508e-01
     vertex  1.200000e+00  0.000000e+00  5.000000e-01
   endloop
 endfacet
 facet normal -4.323820e-16 -1.000000e+00  2.378101e-15
   outer loop
     vertex  6.500000e-01  0.000000e+00  4.000000e-01
     vertex  1.200000e+00  0.000000e+00  5.000000e-01
     vertex  6.485471e-01  2.908404e-17  4.119658e-01
   endloop
 endfacet
 facet normal  4.106207e-16 -1.000000e+00 -2.258414e-15
   outer loop
     vertex  6.485471e-01  2.642711e-17  3.880342e-01
     vertex  1.200000e+00  0.000000e+00  5.000000e-01
     vertex  6.500000e-01  0.000000e+00  4.000000e-01
   endloop
 endfacet
 facet normal -4.530252e-17 -1.000000e+00  0.000000e+00
   outer loop
     vertex  6.442728e-01  2.517584e-17  3.767638e-01
     vertex  1.200000e+00  0.000000e+00  0.000000e+00
     vertex  1.200000e+00  0.000000e+00  5.000000e-01
   endloop
 endfacet
 facet normal -7.634298e-17 -1.000000e+00  1.399754e-16
   outer loop
     vertex  6.442728e-01  2.517584e-17  3.767638e-01
     vertex  1.200000e+00  0.000000e+00  5.000000e-01
     vertex  6.485471e-01  2.642711e-17  3.880342e-01
   endloop
 endfacet
 facet normal  2.041380e-17 -1.000000e+00  9.693167e-17
   outer loop
     vertex  6.374255e-01  2.407451e-17  3.668439e-01
     vertex  1.200000e+00  0.000000e+00  0.000000e+00
     vertex  6.442728e-01  2.517584e-17  3.767638e-01
   endloop
 endfacet
 facet normal  1.705140e-17 -1.000000e+00  9.177525e-17
   outer loop
     vertex  6.284032e-01  2.318710e-17  3.588508e-01
     vertex  1.200000e+00  0.000000e+00  0.000000e+00
     vertex  6.374255e-01  2.407451e-17  3.668439e-01
   endloop
 endfacet
 facet normal  1.326611e-17 -1.000000e+00  8.574584e-17
   outer loop
     vertex  6.177302e-01  2.256519e-17  3.532492e-01
     vertex  1.200000e+00  0.000000e+00  0.000000e+00
     vertex  6.284032e-01  2.318710e-17  3.588508e-01
   endloop
 endfacet
 facet normal  8.262809e-18 -1.000000e+00  7.749877e-17
   outer loop
     vertex  6.060268e-01  2.224493e-17  3.503646e-01
     vertex  1.200000e+00  0.000000e+00  0.000000e+00
     vertex  6.177302e-01  2.256519e-17  3.532492e-01
   endloop
 endfacet
 facet normal  7.634298e-17 -1.000000e+00  1.399754e-16
   outer loop
     vertex  0.000000e+00  0.000000e+00  5.000000e-01
     vertex  5.557272e-01  2.517584e-17  3.767638e-01
     vertex  5.514529e-01  2.642711e-17  3.880342e-01
   endloop
 endfacet
 facet normal  7.224550e-17 -1.000000e+00  1.197945e-16
   outer loop
     vertex  0.000000e+00  0.000000e+00  5.000000e-01
     vertex  5.514529e-01  2.642711e-17  3.880342e-01
     vertex  5.500000e-01  2.775558e-17  4.000000e-01
   endloop
 endfacet
 facet normal  6.912451e-17 -1.000000e+00  1.026291e-16
   outer loop
     vertex  0.000000e+00  0.000000e+00  5.000000e-01
     vertex  5.500000e-01  2.775558e-17  4.000000e-01
     vertex  5.514529e-01  2.908404e-17  4.119658e-01
   endloop
 endfacet
 facet normal  6.644179e-17 -1.000000e+00  8.582426e-17
   outer loop
     vertex  0.000000e+00  0.000000e+00  5.000000e-01
     vertex  5.514529e-01  2.908404e-17  4.119658e-01
     vertex  5.557272e-01  3.033531e-17  4.232362e-01
   endloop
 endfacet
 facet normal  6.383596e-17 -1.000000e+00  6.695952e-17
   outer loop
     vertex  0.000000e+00  0.000000e+00  5.000000e-01
     vertex  5.557272e-01  3.033531e-17  4.232362e-01
     vertex  5.625745e-01  3.143665e-17  4.331561e-01
   endloop
 endfacet
 facet normal  6.090321e-17 -1.000000e+00  4.227679e-17
   outer loop
     vertex  0.000000e+00  0.000000e+00  5.000000e-01
     vertex  5.625745e-01  3.143665e-17  4.331561e-01
     vertex  5.715968e-01  3.232405e-17  4.411492e-01
   endloop
 endfacet
 facet normal  5.683229e-17 -1.000000e+00  2.737420e-18
   outer loop
     vertex  0.000000e+00  0.000000e+00  5.000000e-01
     vertex  5.715968e-01  3.232405e-17  4.411492e-01
     vertex  5.822698e-01  3.294596e-17  4.467508e-01
   endloop
 endfacet
 facet normal  4.867507e-17 -1.000000e+00 -8.646022e-17
   outer loop
     vertex  0.000000e+00  0.000000e+00  5.000000e-01
     vertex  5.822698e-01  3.294596e-17  4.467508e-01
     vertex  5.939732e-01  3.326622e-17  4.496354e-01
   endloop
 endfacet
 facet normal  0.000000e+00 -1.000000e+00  6.349082e-17
   outer loop
     vertex  0.000000e+00  0.000000e+00  0.000000e+00
     vertex  6.060268e-01  2.224493e-17  3.503646e-01
     vertex  5.939732e-01  2.224493e-17  3.503646e-01
   endloop
 endfacet
 facet normal -8.262809e-18 -1.000000e+00  7.749877e-17
   outer loop
     vertex  0.000000e+00  0.000000e+00  0.000000e+00
     vertex  5.939732e-01  2.224493e-17  3.503646e-01
     vertex  5.822698e-01  2.256519e-17  3.532492e-01
   endloop
 endfacet
 facet normal -1.326611e-17 -1.000000e+00  8.574584e-17
   outer loop
     vertex  0.000000e+00  0.000000e+00  0.000000e+00
     vertex  5.822698e-01  2.256519e-17  3.532492e-01
     vertex  5.715968e-01  2.318710e-17  3.588508e-01
   endloop
 endfacet
 facet normal -1.705140e-17 -1.000000e+00  9.177525e-17
   outer loop
     vertex  0.000000e+00  0.000000e+00  0.000000e+00
     vertex  5.715968e-01  2.318710e-17  3.588508e-01
     vertex  5.625745e-01  2.407451e-17  3.668439e-01
   endloop
 endfacet
 facet normal -2.041380e-17 -1.000000e+00  9.693167e-17
   outer loop
     vertex  0.000000e+00  0.000000e+00  0.000000e+00
     vertex  5.625745e-01  2.407451e-17  3.668439e-01
     vertex  5.557272e-01  2.517584e-17  3.767638e-01
   endloop
 endfacet
 facet normal  0.000000e+00 -1.000000e+00  6.349082e-17
   outer loop
     vertex  0.000000e+00  0.000000e+00  0.000000e+00
     vertex  1.200000e+00  0.000000e+00  0.000000e+00
     vertex  6.060268e-01  2.224493e-17  3.503646e-01
   endloop
 endfacet
 facet normal  4.530252e-17 -1.000000e+00  0.000000e+00
   outer loop
     vertex  0.000000e+00  0.000000e+00  0.000000e+00
     vertex  5.557272e-01  2.517584e-17  3.767638e-01
     vertex  0.000000e+00  0.000000e+00  5.000000e-01
   endloop
 endfacet
 facet normal  0.000000e+00 -1.000000e+00 -6.605085e-16
   outer loop
     vertex  0.000000e+00  0.000000e+00  5.000000e-01
     vertex  6.060268e-01  3.326622e-17  4.496354e-01
     vertex  1.200000e+00  0.000000e+00  5.000000e-01
   endloop
 endfacet
 facet normal  0.000000e+00 -1.000000e+00 -6.605085e-16
   outer loop
     vertex  0.000000e+00  0.000000e+00  5.000000e-01
     vertex  5.939732e-01  3.326622e-17  4.496354e-01
     vertex  6.060268e-01  3.326622e-17  4.496354e-01
   endloop
 endfacet
 facet normal  0.000000e+00  1.000000e+00  0.000000e+00
   outer loop
     vertex  0.000000e+00  3.000000e+00  2.500000e-01
     vertex  1.200000e+00  3.000000e+00  0.000000e+00
     vertex  0.000000e+00  3.000000e+00  0.000000e+00
   endloop
 endfacet
 facet normal -0.000000e+00  1.000000e+00  0.000000e+00
   outer loop
     vertex  0.000000e+00  3.000000e+00  2.500000e-01
     vertex  1.200000e+00  3.000000e+00  2.500000e-01
     vertex  1.200000e+00  3.000000e+00  0.000000e+00
   endloop
 endfacet
 facet normal  1.000000e+00  0.000000e+00  0.000000e+00
   outer loop
     vertex  1.200000e+00  3.050000e+00  2.500000e-01
     vertex  1.200000e+00  3.050000e+00  0.000000e+00
     vertex  1.200000e+00  4.050000e+00  0.000000e+00
   endloop
 endfacet
 facet normal  1.000000e+00 -0.000000e+00  0.000000e+00
   outer loop
     vertex  1.200000e+00  3.050000e+00  2.500000e-01
     vertex  1.200000e+00  4.050000e+00  0.000000e+00
     vertex  1.200000e+00  4.050000e+00  5.000000e-01
   endloop
 endfacet
 facet normal  1.000000e+00 -0.000000e+00  0.000000e+00
   outer loop
     vertex  1.200000e+00  3.050000e+00  4.000000e-01
     vertex  1.200000e+00  3.050000e+00  2.500000e-01
     vertex  1.200000e+00  4.050000e+00  5.000000e-01
   endloop
 endfacet
 facet normal  1.000000e+00  0.000000e+00  0.000000e+00
   outer loop
     vertex  1.200000e+00  3.000000e+00  4.000000e-01
     vertex  1.200000e+00  3.000000e+00  2.500000e-01
     vertex  1.200000e+00  3.050000e+00  2.500000e-01
   endloop
 endfacet
 facet normal  1.000000e+00 -0.000000e+00  0.000000e+00
   outer loop
     vertex  1.200000e+00  3.000000e+00  4.000000e-01
     vertex  1.200000e+00  3.050000e+00  2.500000e-01
     vertex  1.200000e+00  3.050000e+00  4.000000e-01
   endloop
 endfacet
 facet normal  1.000000e+00 -0.000000e+00  0.000000e+00
   outer loop
     vertex  1.200000e+00  3.050000e+00  5.000000e-01
     vertex  1.200000e+00  3.050000e+00  4.000000e-01
     vertex  1.200000e+00  4.050000e+00  5.000000e-01
   endloop
 endfacet
 facet normal  1.000000e+00  0.000000e+00  0.000000e+00
   outer loop
     vertex  1.200000e+00  0.000000e+00  0.000000e+00
     vertex  1.200000e+00  3.000000e+00  0.000000e+00
     vertex  1.200000e+00  3.000000e+00  2.500000e-01
   endloop
 endfacet
 facet normal  1.000000e+00 -0.000000e+00  0.000000e+00
   outer loop
     vertex  1.200000e+00  0.000000e+00  5.000000e-01
     vertex  1.200000e+00  3.000000e+00  4.000000e-01
     vertex  1.200000e+00  3.000000e+00  5.000000e-01
   endloop
 endfacet
 facet normal  1.000000e+00  0.000000e+00  0.000000e+00
   outer loop
     vertex  1.200000e+00  0.000000e+00  5.000000e-01
     vertex  1.200000e+00  0.000000e+00  0.000000e+00
     vertex  1.200000e+00  3.000000e+00  2.500000e-01
   endloop
 endfacet
 facet normal  1.000000e+00  0.000000e+00  0.000000e+00
   outer loop
     vertex  1.200000e+00  0.000000e+00  5.000000e-01
     vertex  1.200000e+00  3.000000e+00  2.500000e-01
     vertex  1.200000e+00  3.000000e+00  4.000000e-01
   endloop
 endfacet
 facet normal  0.000000e+00 -1.000000e+00  0.000000e+00
   outer loop
     vertex  0.000000e+00  3.050000e+00  0.000000e+00
     vertex  1.200000e+00  3.050000e+00  2.500000e-01
     vertex  0.000000e+00  3.050000e+00  2.500000e-01
   endloop
 endfacet
 facet normal  0.000000e+00 -1.000000e+00  0.000000e+00
   outer loop
     vertex  0.000000e+00  3.050000e+00  0.000000e+00
     vertex  1.200000e+00  3.050000e+00  0.000000e+00
     vertex  1.200000e+00  3.050000e+00  2.500000e-01
   endloop
 endfacet
endsolid
