solid 
 facet normal  9.951847e-01  1.071569e-17  9.801714e-02
   outer loop
     vertex  6.490393e-01  4.050000e+00  4.097545e-01
     vertex  6.500000e-01  4.050000e+00  4.000000e-01
     vertex  6.500000e-01  4.550000e+00  4.000000e-01
   endloop
 endfacet
 facet normal  9.951847e-01  1.088209e-17  9.801714e-02
   outer loop
     vertex  6.490393e-01  4.050000e+00  4.097545e-01
     vertex  6.500000e-01  4.550000e+00  4.000000e-01
     vertex  6.490393e-01  4.550000e+00  4.097545e-01
   endloop
 endfacet
 facet normal  9.569403e-01  3.222807e-17  2.902847e-01
   outer loop
     vertex  6.461940e-01  4.050000e+00  4.191342e-01
     vertex  6.490393e-01  4.550000e+00  4.097545e-01
     vertex  6.461940e-01  4.550000e+00  4.191342e-01
   endloop
 endfacet
 facet normal  9.569403e-01  3.180139e-17  2.902847e-01
   outer loop
     vertex  6.461940e-01  4.050000e+00  4.191342e-01
     vertex  6.490393e-01  4.050000e+00  4.097545e-01
     vertex  6.490393e-01  4.550000e+00  4.097545e-01
   endloop
 endfacet
 facet normal  8.819213e-01  5.233555e-17  4.713967e-01
   outer loop
     vertex  6.415735e-01  4.050000e+00  4.277785e-01
     vertex  6.461940e-01  4.550000e+00  4.191342e-01
     vertex  6.415735e-01  4.550000e+00  4.277785e-01
   endloop
 endfacet
 facet normal  8.819213e-01  5.254143e-17  4.713967e-01
   outer loop
     vertex  6.415735e-01  4.050000e+00  4.277785e-01
     vertex  6.461940e-01  4.050000e+00  4.191342e-01
     vertex  6.461940e-01  4.550000e+00  4.191342e-01
   endloop
 endfacet
 facet normal  7.730105e-01  7.043180e-17  6.343933e-01
   outer loop
     vertex  6.353553e-01  4.050000e+00  4.353553e-01
     vertex  6.415735e-01  4.550000e+00  4.277785e-01
     vertex  6.353553e-01  4.550000e+00  4.353553e-01
   endloop
 endfacet
 facet normal  7.730105e-01  7.051612e-17  6.343933e-01
   outer loop
     vertex  6.353553e-01  4.050000e+00  4.353553e-01
     vertex  6.415735e-01  4.050000e+00  4.277785e-01
     vertex  6.415735e-01  4.550000e+00  4.277785e-01
   endloop
 endfacet
 facet normal  6.343933e-01  8.582140e-17  7.730105e-01
   outer loop
     vertex  6.277785e-01  4.050000e+00  4.415735e-01
     vertex  6.353553e-01  4.550000e+00  4.353553e-01
     vertex  6.277785e-01  4.550000e+00  4.415735e-01
   endloop
 endfacet
 facet normal  6.343933e-01  8.572548e-17  7.730105e-01
   outer loop
     vertex  6.277785e-01  4.050000e+00  4.415735e-01
     vertex  6.353553e-01  4.050000e+00  4.353553e-01
     vertex  6.353553e-01  4.550000e+00  4.353553e-01
   endloop
 endfacet
 facet normal  4.713967e-01  9.791293e-17  8.819213e-01
   outer loop
     vertex  6.191342e-01  4.050000e+00  4.461940e-01
     vertex  6.277785e-01  4.550000e+00  4.415735e-01
     vertex  6.191342e-01  4.550000e+00  4.461940e-01
   endloop
 endfacet
 facet normal  4.713967e-01  9.816951e-17  8.819213e-01
   outer loop
     vertex  6.191342e-01  4.050000e+00  4.461940e-01
     vertex  6.277785e-01  4.050000e+00  4.415735e-01
     vertex  6.277785e-01  4.550000e+00  4.415735e-01
   endloop
 endfacet
 facet normal  2.902847e-01  1.062417e-16  9.569403e-01
   outer loop
     vertex  6.097545e-01  4.050000e+00  4.490393e-01
     vertex  6.191342e-01  4.550000e+00  4.461940e-01
     vertex  6.097545e-01  4.550000e+00  4.490393e-01
   endloop
 endfacet
 facet normal  2.902847e-01  1.064655e-16  9.569403e-01
   outer loop
     vertex  6.097545e-01  4.050000e+00  4.490393e-01
     vertex  6.191342e-01  4.050000e+00  4.461940e-01
     vertex  6.191342e-01  4.550000e+00  4.461940e-01
   endloop
 endfacet
 facet normal  9.801714e-02  1.106135e-16  9.951847e-01
   outer loop
     vertex  6.000000e-01  4.050000e+00  4.500000e-01
     vertex  6.097545e-01  4.050000e+00  4.490393e-01
     vertex  6.097545e-01  4.550000e+00  4.490393e-01
   endloop
 endfacet
 facet normal  9.801714e-02  1.104877e-16  9.951847e-01
   outer loop
     vertex  6.000000e-01  4.050000e+00  4.500000e-01
     vertex  6.097545e-01  4.550000e+00  4.490393e-01
     vertex  6.000000e-01  4.550000e+00  4.500000e-01
   endloop
 endfacet
 facet normal -9.801714e-02  1.106135e-16  9.951847e-01
   outer loop
     vertex  5.902455e-01  4.050000e+00  4.490393e-01
     vertex  6.000000e-01  4.050000e+00  4.500000e-01
     vertex  6.000000e-01  4.550000e+00  4.500000e-01
   endloop
 endfacet
 facet normal -9.801714e-02  1.104877e-16  9.951847e-01
   outer loop
     vertex  5.902455e-01  4.050000e+00  4.490393e-01
     vertex  6.000000e-01  4.550000e+00  4.500000e-01
     vertex  5.902455e-01  4.550000e+00  4.490393e-01
   endloop
 endfacet
 facet normal -2.902847e-01  1.057742e-16  9.569403e-01
   outer loop
     vertex  5.808658e-01  4.050000e+00  4.461940e-01
     vertex  5.902455e-01  4.050000e+00  4.490393e-01
     vertex  5.902455e-01  4.550000e+00  4.490393e-01
   endloop
 endfacet
 facet normal -2.902847e-01  1.062417e-16  9.569403e-01
   outer loop
     vertex  5.808658e-01  4.050000e+00  4.461940e-01
     vertex  5.902455e-01  4.550000e+00  4.490393e-01
     vertex  5.808658e-01  4.550000e+00  4.461940e-01
   endloop
 endfacet
 facet normal -4.713967e-01  9.678684e-17  8.819213e-01
   outer loop
     vertex  5.722215e-01  4.050000e+00  4.415735e-01
     vertex  5.808658e-01  4.050000e+00  4.461940e-01
     vertex  5.808658e-01  4.550000e+00  4.461940e-01
   endloop
 endfacet
 facet normal -4.713967e-01  9.791293e-17  8.819213e-01
   outer loop
     vertex  5.722215e-01  4.050000e+00  4.415735e-01
     vertex  5.808658e-01  4.550000e+00  4.461940e-01
     vertex  5.722215e-01  4.550000e+00  4.415735e-01
   endloop
 endfacet
 facet normal -6.343933e-01  8.582140e-17  7.730105e-01
   outer loop
     vertex  5.722215e-01  4.050000e+00  4.415735e-01
     vertex  5.722215e-01  4.550000e+00  4.415735e-01
     vertex  5.646447e-01  4.550000e+00  4.353553e-01
   endloop
 endfacet
 facet normal -6.343933e-01  8.582140e-17  7.730105e-01
   outer loop
     vertex  5.646447e-01  4.050000e+00  4.353553e-01
     vertex  5.722215e-01  4.050000e+00  4.415735e-01
     vertex  5.646447e-01  4.550000e+00  4.353553e-01
   endloop
 endfacet
 facet normal -7.730105e-01  7.051612e-17  6.343933e-01
   outer loop
     vertex  5.584265e-01  4.050000e+00  4.277785e-01
     vertex  5.646447e-01  4.050000e+00  4.353553e-01
     vertex  5.646447e-01  4.550000e+00  4.353553e-01
   endloop
 endfacet
 facet normal -7.730105e-01  7.043180e-17  6.343933e-01
   outer loop
     vertex  5.584265e-01  4.050000e+00  4.277785e-01
     vertex  5.646447e-01  4.550000e+00  4.353553e-01
     vertex  5.584265e-01  4.550000e+00  4.277785e-01
   endloop
 endfacet
 facet normal -8.819213e-01  5.254143e-17  4.713967e-01
   outer loop
     vertex  5.538060e-01  4.050000e+00  4.191342e-01
     vertex  5.584265e-01  4.050000e+00  4.277785e-01
     vertex  5.584265e-01  4.550000e+00  4.277785e-01
   endloop
 endfacet
 facet normal -8.819213e-01  5.233555e-17  4.713967e-01
   outer loop
     vertex  5.538060e-01  4.050000e+00  4.191342e-01
     vertex  5.584265e-01  4.550000e+00  4.277785e-01
     vertex  5.538060e-01  4.550000e+00  4.191342e-01
   endloop
 endfacet
 facet normal -9.569403e-01  3.249272e-17  2.902847e-01
   outer loop
     vertex  5.509607e-01  4.050000e+00  4.097545e-01
     vertex  5.538060e-01  4.050000e+00  4.191342e-01
     vertex  5.538060e-01  4.550000e+00  4.191342e-01
   endloop
 endfacet
 facet normal -9.569403e-01  3.222807e-17  2.902847e-01
   outer loop
     vertex  5.509607e-01  4.050000e+00  4.097545e-01
     vertex  5.538060e-01  4.550000e+00  4.191342e-01
     vertex  5.509607e-01  4.550000e+00  4.097545e-01
   endloop
 endfacet
 facet normal -9.951847e-01  1.071569e-17  9.801714e-02
   outer loop
     vertex  5.500000e-01  4.050000e+00  4.000000e-01
     vertex  5.509607e-01  4.050000e+00  4.097545e-01
     vertex  5.509607e-01  4.550000e+00  4.097545e-01
   endloop
 endfacet
 facet normal -9.951847e-01  1.088209e-17  9.801714e-02
   outer loop
     vertex  5.500000e-01  4.050000e+00  4.000000e-01
     vertex  5.509607e-01  4.550000e+00  4.097545e-01
     vertex  5.500000e-01  4.550000e+00  4.000000e-01
   endloop
 endfacet
 facet normal -9.951847e-01 -1.106135e-17 -9.801714e-02
   outer loop
     vertex  5.509607e-01  4.050000e+00  3.902455e-01
     vertex  5.500000e-01  4.050000e+00  4.000000e-01
     vertex  5.500000e-01  4.550000e+00  4.000000e-01
   endloop
 endfacet
 facet normal -9.951847e-01 -1.088209e-17 -9.801714e-02
   outer loop
     vertex  5.509607e-01  4.050000e+00  3.902455e-01
     vertex  5.500000e-01  4.550000e+00  4.000000e-01
     vertex  5.509607e-01  4.550000e+00  3.902455e-01
   endloop
 endfacet
 facet normal -9.569403e-01 -3.180139e-17 -2.902847e-01
   outer loop
     vertex  5.538060e-01  4.050000e+00  3.808658e-01
     vertex  5.509607e-01  4.050000e+00  3.902455e-01
     vertex  5.509607e-01  4.550000e+00  3.902455e-01
   endloop
 endfacet
 facet normal -9.569403e-01 -3.222807e-17 -2.902847e-01
   outer loop
     vertex  5.538060e-01  4.050000e+00  3.808658e-01
     vertex  5.509607e-01  4.550000e+00  3.902455e-01
     vertex  5.538060e-01  4.550000e+00  3.808658e-01
   endloop
 endfacet
 facet normal -8.819213e-01 -5.233555e-17 -4.713967e-01
   outer loop
     vertex  5.538060e-01  4.050000e+00  3.808658e-01
     vertex  5.538060e-01  4.550000e+00  3.808658e-01
     vertex  5.584265e-01  4.550000e+00  3.722215e-01
   endloop
 endfacet
 facet normal -8.819213e-01 -5.233555e-17 -4.713967e-01
   outer loop
     vertex  5.584265e-01  4.050000e+00  3.722215e-01
     vertex  5.538060e-01  4.050000e+00  3.808658e-01
     vertex  5.584265e-01  4.550000e+00  3.722215e-01
   endloop
 endfacet
 facet normal -7.730105e-01 -7.051612e-17 -6.343933e-01
   outer loop
     vertex  5.646447e-01  4.050000e+00  3.646447e-01
     vertex  5.584265e-01  4.050000e+00  3.722215e-01
     vertex  5.584265e-01  4.550000e+00  3.722215e-01
   endloop
 endfacet
 facet normal -7.730105e-01 -7.043180e-17 -6.343933e-01
   outer loop
     vertex  5.646447e-01  4.050000e+00  3.646447e-01
     vertex  5.584265e-01  4.550000e+00  3.722215e-01
     vertex  5.646447e-01  4.550000e+00  3.646447e-01
   endloop
 endfacet
 facet normal -6.343933e-01 -8.582140e-17 -7.730105e-01
   outer loop
     vertex  5.646447e-01  4.050000e+00  3.646447e-01
     vertex  5.646447e-01  4.550000e+00  3.646447e-01
     vertex  5.722215e-01  4.550000e+00  3.584265e-01
   endloop
 endfacet
 facet normal -6.343933e-01 -8.582140e-17 -7.730105e-01
   outer loop
     vertex  5.722215e-01  4.050000e+00  3.584265e-01
     vertex  5.646447e-01  4.050000e+00  3.646447e-01
     vertex  5.722215e-01  4.550000e+00  3.584265e-01
   endloop
 endfacet
 facet normal -4.713967e-01  0.000000e+00 -8.819213e-01
   outer loop
     vertex  5.808658e-01  4.050000e+00  3.538060e-01
     vertex  5.722215e-01  4.550000e+00  3.584265e-01
     vertex  5.808658e-01  4.550000e+00  3.538060e-01
   endloop
 endfacet
 facet normal -4.713967e-01 -9.678684e-17 -8.819213e-01
   outer loop
     vertex  5.808658e-01  4.050000e+00  3.538060e-01
     vertex  5.722215e-01  4.050000e+00  3.584265e-01
     vertex  5.722215e-01  4.550000e+00  3.584265e-01
   endloop
 endfacet
 facet normal -2.902847e-01  0.000000e+00 -9.569403e-01
   outer loop
     vertex  5.808658e-01  4.050000e+00  3.538060e-01
     vertex  5.808658e-01  4.550000e+00  3.538060e-01
     vertex  5.902455e-01  4.550000e+00  3.509607e-01
   endloop
 endfacet
 facet normal -2.902847e-01 -1.062417e-16 -9.569403e-01
   outer loop
     vertex  5.902455e-01  4.050000e+00  3.509607e-01
     vertex  5.808658e-01  4.050000e+00  3.538060e-01
     vertex  5.902455e-01  4.550000e+00  3.509607e-01
   endloop
 endfacet
 facet normal -9.801714e-02 -1.104877e-16 -9.951847e-01
   outer loop
     vertex  6.000000e-01  4.050000e+00  3.500000e-01
     vertex  5.902455e-01  4.550000e+00  3.509607e-01
     vertex  6.000000e-01  4.550000e+00  3.500000e-01
   endloop
 endfacet
 facet normal  9.801714e-02 -1.104877e-16 -9.951847e-01
   outer loop
     vertex  6.000000e-01  4.050000e+00  3.500000e-01
     vertex  6.000000e-01  4.550000e+00  3.500000e-01
     vertex  6.097545e-01  4.550000e+00  3.509607e-01
   endloop
 endfacet
 facet normal -9.801714e-02 -1.102679e-16 -9.951847e-01
   outer loop
     vertex  6.000000e-01  4.050000e+00  3.500000e-01
     vertex  5.902455e-01  4.050000e+00  3.509607e-01
     vertex  5.902455e-01  4.550000e+00  3.509607e-01
   endloop
 endfacet
 facet normal  2.902847e-01 -1.062417e-16 -9.569403e-01
   outer loop
     vertex  6.097545e-01  4.050000e+00  3.509607e-01
     vertex  6.097545e-01  4.550000e+00  3.509607e-01
     vertex  6.191342e-01  4.550000e+00  3.538060e-01
   endloop
 endfacet
 facet normal  9.801714e-02 -1.104877e-16 -9.951847e-01
   outer loop
     vertex  6.097545e-01  4.050000e+00  3.509607e-01
     vertex  6.000000e-01  4.050000e+00  3.500000e-01
     vertex  6.097545e-01  4.550000e+00  3.509607e-01
   endloop
 endfacet
 facet normal  2.902847e-01 -1.062417e-16 -9.569403e-01
   outer loop
     vertex  6.191342e-01  4.050000e+00  3.538060e-01
     vertex  6.097545e-01  4.050000e+00  3.509607e-01
     vertex  6.191342e-01  4.550000e+00  3.538060e-01
   endloop
 endfacet
 facet normal  4.713967e-01 -9.791293e-17 -8.819213e-01
   outer loop
     vertex  6.277785e-01  4.050000e+00  3.584265e-01
     vertex  6.191342e-01  4.550000e+00  3.538060e-01
     vertex  6.277785e-01  4.550000e+00  3.584265e-01
   endloop
 endfacet
 facet normal  6.343933e-01 -8.582140e-17 -7.730105e-01
   outer loop
     vertex  6.277785e-01  4.050000e+00  3.584265e-01
     vertex  6.277785e-01  4.550000e+00  3.584265e-01
     vertex  6.353553e-01  4.550000e+00  3.646447e-01
   endloop
 endfacet
 facet normal  4.713967e-01 -9.816951e-17 -8.819213e-01
   outer loop
     vertex  6.277785e-01  4.050000e+00  3.584265e-01
     vertex  6.191342e-01  4.050000e+00  3.538060e-01
     vertex  6.191342e-01  4.550000e+00  3.538060e-01
   endloop
 endfacet
 facet normal  6.343933e-01 -8.582140e-17 -7.730105e-01
   outer loop
     vertex  6.353553e-01  4.050000e+00  3.646447e-01
     vertex  6.277785e-01  4.050000e+00  3.584265e-01
     vertex  6.353553e-01  4.550000e+00  3.646447e-01
   endloop
 endfacet
 facet normal  7.730105e-01 -7.043180e-17 -6.343933e-01
   outer loop
     vertex  6.415735e-01  4.050000e+00  3.722215e-01
     vertex  6.353553e-01  4.550000e+00  3.646447e-01
     vertex  6.415735e-01  4.550000e+00  3.722215e-01
   endloop
 endfacet
 facet normal  7.730105e-01 -7.051612e-17 -6.343933e-01
   outer loop
     vertex  6.415735e-01  4.050000e+00  3.722215e-01
     vertex  6.353553e-01  4.050000e+00  3.646447e-01
     vertex  6.353553e-01  4.550000e+00  3.646447e-01
   endloop
 endfacet
 facet normal  8.819213e-01 -5.233555e-17 -4.713967e-01
   outer loop
     vertex  6.461940e-01  4.050000e+00  3.808658e-01
     vertex  6.415735e-01  4.550000e+00  3.722215e-01
     vertex  6.461940e-01  4.550000e+00  3.808658e-01
   endloop
 endfacet
 facet normal  8.819213e-01 -5.254143e-17 -4.713967e-01
   outer loop
     vertex  6.461940e-01  4.050000e+00  3.808658e-01
     vertex  6.415735e-01  4.050000e+00  3.722215e-01
     vertex  6.415735e-01  4.550000e+00  3.722215e-01
   endloop
 endfacet
 facet normal  9.569403e-01 -3.222807e-17 -2.902847e-01
   outer loop
     vertex  6.490393e-01  4.050000e+00  3.902455e-01
     vertex  6.461940e-01  4.550000e+00  3.808658e-01
     vertex  6.490393e-01  4.550000e+00  3.902455e-01
   endloop
 endfacet
 facet normal  9.569403e-01 -3.249272e-17 -2.902847e-01
   outer loop
     vertex  6.490393e-01  4.050000e+00  3.902455e-01
     vertex  6.461940e-01  4.050000e+00  3.808658e-01
     vertex  6.461940e-01  4.550000e+00  3.808658e-01
   endloop
 endfacet
 facet normal  9.951847e-01 -1.088209e-17 -9.801714e-02
   outer loop
     vertex  6.500000e-01  4.050000e+00  4.000000e-01
     vertex  6.490393e-01  4.550000e+00  3.902455e-01
     vertex  6.500000e-01  4.550000e+00  4.000000e-01
   endloop
 endfacet
 facet normal  9.951847e-01 -1.106135e-17 -9.801714e-02
   outer loop
     vertex  6.500000e-01  4.050000e+00  4.000000e-01
     vertex  6.490393e-01  4.050000e+00  3.902455e-01
     vertex  6.490393e-01  4.550000e+00  3.902455e-01
   endloop
 endfacet
endsolid
