solid 
 facet normal  0.000000e+00 -1.000000e+00  0.000000e+00
   outer loop
     vertex  0.000000e+00  3.050000e+00  4.000000e-01
     vertex  1.200000e+00  3.050000e+00  5.000000e-01
     vertex  0.000000e+00  3.050000e+00  5.000000e-01
   endloop
 endfacet
 facet normal  0.000000e+00 -1.000000e+00  0.000000e+00
   outer loop
     vertex  0.000000e+00  3.050000e+00  4.000000e-01
     vertex  1.200000e+00  3.050000e+00  4.000000e-01
     vertex  1.200000e+00  3.050000e+00  5.000000e-01
   endloop
 endfacet
 facet normal  0.000000e+00  1.000000e+00  0.000000e+00
   outer loop
     vertex  0.000000e+00  3.000000e+00  5.000000e-01
     vertex  1.200000e+00  3.000000e+00  4.000000e-01
     vertex  0.000000e+00  3.000000e+00  4.000000e-01
   endloop
 endfacet
 facet normal -0.000000e+00  1.000000e+00  0.000000e+00
   outer loop
     vertex  0.000000e+00  3.000000e+00  5.000000e-01
     vertex  1.200000e+00  3.000000e+00  5.000000e-01
     vertex  1.200000e+00  3.000000e+00  4.000000e-01
   endloop
 endfacet
 facet normal  0.000000e+00  0.000000e+00  1.000000e+00
   outer loop
     vertex  0.000000e+00  3.000000e+00  4.000000e-01
     vertex  1.200000e+00  3.050000e+00  4.000000e-01
     vertex  0.000000e+00  3.050000e+00  4.000000e-01
   endloop
 endfacet
 facet normal  0.000000e+00  0.000000e+00  1.000000e+00
   outer loop
     vertex  0.000000e+00  3.000000e+00  4.000000e-01
     vertex  1.200000e+00  3.000000e+00  4.000000e-01
     vertex  1.200000e+00  3.050000e+00  4.000000e-01
   endloop
 endfacet
 facet normal  0.000000e+00  0.000000e+00  1.000000e+00
   outer loop
     vertex  0.000000e+00  0.000000e+00  5.000000e-01
     vertex  1.200000e+00  3.000000e+00  5.000000e-01
     vertex  0.000000e+00  3.000000e+00  5.000000e-01
   endloop
 endfacet
 facet normal  0.000000e+00  0.000000e+00  1.000000e+00
   outer loop
     vertex  0.000000e+00  0.000000e+00  5.000000e-01
     vertex  1.200000e+00  0.000000e+00  5.000000e-01
     vertex  1.200000e+00  3.000000e+00  5.000000e-01
   endloop
 endfacet
 facet normal  0.000000e+00  0.000000e+00  1.000000e+00
   outer loop
     vertex  0.000000e+00  3.050000e+00  5.000000e-01
     vertex  1.200000e+00  4.050000e+00  5.000000e-01
     vertex  0.000000e+00  4.050000e+00  5.000000e-01
   endloop
 endfacet
 facet normal  0.000000e+00  0.000000e+00  1.000000e+00
   outer loop
     vertex  0.000000e+00  3.050000e+00  5.000000e-01
     vertex  1.200000e+00  3.050000e+00  5.000000e-01
     vertex  1.200000e+00  4.050000e+00  5.000000e-01
   endloop
 endfacet
endsolid
